<svg xmlns="http://www.w3.org/2000/svg" version="1.1" xmlns:xlink="http://www.w3.org/1999/xlink" xmlns:svgjs="http://svgjs.com/svgjs" width="100%" height="100%" viewBox="0 0 1000 600"><rect width="1000" height="600" x="0" y="0" fill="#f7dad9"/><g><circle r="166.66666666666666" cx="378.65832010904944" cy="400.8806084799251" fill="#faf1e6" transform="matrix(0.5896458574360574,0,0,0.5896458574360571,0,63.62243821745726)"/><path d="M310.0856191109299 325.8806336915919L334.99139185047204 325.8806336915919L378.6136891457752 395.9560157723825L422.32525444372914 325.8806336915919L447.2310271832713 325.8806336915919L389.385361465625 416.3686323785067L389.385361465625 475.8806341456324L367.93128482857617 475.8806341456324L367.93128482857617 416.3686323785067L310.0856191109299 325.8806336915919Z " fill="#f7dad9" transform="matrix(0.5896458574360574,0,0,0.5896458574360571,0,63.62243821745726)"/><path d="M628.6583196161788 330.0746196642003L652.867729281118 330.0746196642003L695.2703512271167 398.1907006211082L737.7597452507675 330.0746196642003L761.9691549157069 330.0746196642003L705.7408485971382 418.0325823775578L705.7408485971382 475.8806341456324L684.8866259347474 475.8806341456324L684.8866259347474 418.0325823775578L628.6583196161788 330.0746196642003ZM783.835718484039 367.5890812357967L803.8800684216769 367.5890812357967L803.8800684216769 475.8806341456324L783.835718484039 475.8806341456324L783.835718484039 367.5890812357967ZM782.8233775780977 346.73485857340575L782.8233775780977 325.8806359110149L804.8924093276182 325.8806359110149L804.8924093276182 346.73485857340575L782.8233775780977 346.73485857340575ZM836.1014332564945 387.6045071475505L836.1014332564945 367.5890812357967L925.6791414193581 367.5890812357967L925.6791414193581 372.96895005022765L868.0335578324717 455.83628420799454L925.6791414193581 455.83628420799454L925.6791414193581 475.8806341456324L834.0767514446119 475.8806341456324L834.0767514446119 470.5007653312015L891.7223350314982 387.6045071475505L836.1014332564945 387.6045071475505ZM1050.6598572642833 387.6045071475505L1050.6598572642833 475.8806341456324L1030.6155073266455 475.8806341456324L1030.6155073266455 387.6045071475505L974.7921373704535 387.6045071475505L974.7921373704535 475.8806341456324L954.8634835363517 475.8806341456324L954.8634835363517 325.8806359110149L974.7921373704535 325.8806359110149L974.7921373704535 386.7078623451454Q974.9946055516417 382.74527079903226 976.6432750270318 379.2165396411797Q978.2630204765379 375.71673250921117 980.9529548837534 373.1135701796478Q983.6428892909689 370.53933187596846 987.2005444747056 369.0642065558826Q990.758199658442 367.5890812357967 994.8364873080913 367.5890812357967L994.8364873080913 367.5890812357967L1030.6155073266455 367.5890812357967Q1034.8094910798309 367.5890812357967 1038.4539183412196 369.1509786335347Q1042.1272696284923 370.74180005715675 1044.8172040357078 373.4317344643722Q1047.5071384429232 376.1216688715877 1049.0690358406612 379.79502015886044Q1050.6598572642833 383.4394474202491 1050.6598572642833 387.6045071475505L1050.6598572642833 387.6045071475505ZM1175.6405731092086 387.6045071475505L1175.6405731092086 431.94503882777974L1103.93791294268 431.94503882777974L1103.93791294268 455.83628420799454L1175.6405731092086 455.83628420799454L1175.6405731092086 475.8806341456324L1103.93791294268 475.8806341456324Q1099.8885493189148 475.8806341456324 1096.215198031642 474.31873674789443Q1092.5418467443692 472.7279153242724 1089.8519123371539 470.03798091705687Q1087.1619779299385 467.3480465098414 1085.6000805322003 463.6746952225687Q1084.0092591085784 460.03026796117996 1084.0092591085784 455.83628420799454L1084.0092591085784 455.83628420799454L1084.0092591085784 387.6045071475505Q1084.0092591085784 383.4394474202491 1085.6000805322003 379.79502015886044Q1087.1619779299385 376.1216688715877 1089.8519123371539 373.4317344643722Q1092.5418467443692 370.74180005715675 1096.215198031642 369.1509786335347Q1099.8885493189148 367.5890812357967 1103.93791294268 367.5890812357967L1103.93791294268 367.5890812357967L1155.5962231715707 367.5890812357967Q1159.7612828988722 367.5890812357967 1163.4346341861449 369.1509786335347Q1167.0790614475336 370.74180005715675 1169.7979198806331 373.4317344643722Q1172.4878542878487 376.1216688715877 1174.0497516855867 379.79502015886044Q1175.6405731092086 383.4394474202491 1175.6405731092086 387.6045071475505L1175.6405731092086 387.6045071475505ZM1155.5962231715707 387.6045071475505L1103.93791294268 387.6045071475505L1103.93791294268 411.9296129160259L1155.5962231715707 411.9296129160259L1155.5962231715707 387.6045071475505ZM1304.786348681435 387.6045071475505L1304.786348681435 475.8806341456324L1284.741998743797 475.8806341456324L1284.741998743797 387.6045071475505L1228.9186287876055 387.6045071475505L1228.9186287876055 475.8806341456324L1208.9899749535036 475.8806341456324L1208.9899749535036 367.5890812357967L1228.9186287876055 367.5890812357967L1228.9186287876055 386.7078623451454Q1229.1210969687936 382.74527079903226 1230.7408424182997 379.2165396411797Q1232.3605878678059 375.71673250921117 1235.0794463009051 373.1135701796478Q1237.7693807081205 370.53933187596846 1241.3270358918571 369.0642065558826Q1244.8846910755938 367.5890812357967 1248.934054699359 367.5890812357967L1248.934054699359 367.5890812357967L1284.741998743797 367.5890812357967Q1288.9070584710985 367.5890812357967 1292.5804097583714 369.1509786335347Q1296.22483701976 370.74180005715675 1298.9147714269757 373.4317344643722Q1301.633629860075 376.1216688715877 1303.195527257813 379.79502015886044Q1304.786348681435 383.4394474202491 1304.786348681435 387.6045071475505L1304.786348681435 387.6045071475505ZM1365.179714727305 352.11472738783675L1358.5561127998603 398.39316880229643L1344.7304284272905 398.39316880229643L1338.1357505257301 352.11472738783675L1338.1357505257301 330.0746196642003L1365.179714727305 330.0746196642003L1365.179714727305 352.11472738783675ZM1396.3887386561814 455.83628420799454L1463.8974150695244 455.83628420799454L1463.8974150695244 430.73022974065015L1416.4330885938193 430.73022974065015Q1412.2680288665179 430.73022974065015 1408.594677579245 429.16833234291215Q1404.921326291972 427.5775109192901 1402.2313918847567 424.88757651207465Q1399.5414574775414 422.19764210485914 1397.9795600798034 418.5242908175864Q1396.3887386561814 414.8798635561977 1396.3887386561814 410.6858798030123L1396.3887386561814 410.6858798030123L1396.3887386561814 387.6045071475505Q1396.3887386561814 383.4394474202491 1397.9795600798034 379.79502015886044Q1399.5414574775414 376.1216688715877 1402.2313918847567 373.4317344643722Q1404.921326291972 370.74180005715675 1408.594677579245 369.1509786335347Q1412.2680288665179 367.5890812357967 1416.4330885938193 367.5890812357967L1416.4330885938193 367.5890812357967L1479.7767052798608 367.5890812357967L1479.7767052798608 387.6045071475505L1416.4330885938193 387.6045071475505L1416.4330885938193 410.6858798030123L1463.8974150695244 410.6858798030123Q1468.0913988227098 410.6858798030123 1471.6779780323304 412.2767012266344Q1475.293481267835 413.83859862437237 1478.0412637268187 416.5574570574719Q1480.7890461858024 419.2473914646874 1482.3798676094243 422.89181872607605Q1483.9417650071623 426.5651700133488 1483.9417650071623 430.73022974065015L1483.9417650071623 430.73022974065015L1483.9417650071623 455.83628420799454Q1483.9417650071623 460.03026796117996 1482.3798676094243 463.6746952225687Q1480.7890461858024 467.3480465098414 1478.0412637268187 470.03798091705687Q1475.293481267835 472.7279153242724 1471.6779780323304 474.31873674789443Q1468.0913988227098 475.8806341456324 1463.8974150695244 475.8806341456324L1463.8974150695244 475.8806341456324L1396.3887386561814 475.8806341456324L1396.3887386561814 455.83628420799454Z " fill="#faf1e6" transform="matrix(0.5896458574360574,0,0,0.5896458574360571,0,63.62243821745726)"/></g></svg>